<svg width="90" height="111" viewBox="0 0 90 111" fill="none" xmlns="http://www.w3.org/2000/svg">
<path d="M16.6452 71.2306V86.2884L29.6738 78.7531V63.7082L16.6452 71.2306Z" fill="#E3CFCF"/>
<path d="M14.5514 71.2306V86.2884L1.5228 78.7531V63.7082L14.5514 71.2306Z" fill="#E3CFCF"/>
<path d="M16.6452 54.9707V68.8136L28.6398 61.8857L16.6452 54.9707Z" fill="#E3CFCF"/>
<path d="M14.5514 54.9707L2.55682 61.8857L14.5514 68.8136V54.9707Z" fill="#E3CFCF"/>
<path d="M14.5514 51.2741V36.2163L1.5228 43.7517V58.7966L14.5514 51.2741Z" fill="#E3CFCF"/>
<path d="M16.6452 16.2599V31.3177L29.6738 23.7823V8.73741L16.6452 16.2599Z" fill="#E3CFCF"/>
<path d="M14.5514 16.2599V31.3177L1.5228 23.7823V8.73741L14.5514 16.2599Z" fill="#E3CFCF"/>
<path d="M16.6452 0V13.8429L28.6398 6.91496L16.6452 0Z" fill="#E3CFCF"/>
<path d="M14.5514 0L2.55682 6.91496L14.5514 13.8429V0Z" fill="#E3CFCF"/>
<path d="M2.55682 26.781V40.6367L14.5514 33.7088L2.55682 26.781Z" fill="#E3CFCF"/>
<path d="M28.6398 26.781L16.6452 33.7088L28.6398 40.6367V26.781Z" fill="#E3CFCF"/>
<path d="M16.6452 51.2741V36.2163L29.6738 43.7517V58.7966L16.6452 51.2741Z" fill="#E3CFCF"/>
<path d="M47.0194 71.2306V86.2884L60.048 78.7531V63.7082L47.0194 71.2306Z" fill="#E3CFCF"/>
<path d="M44.9255 71.2306V86.2884L31.897 78.7531V63.7082L44.9255 71.2306Z" fill="#E3CFCF"/>
<path d="M47.0194 54.9707V68.8136L59.014 61.8857L47.0194 54.9707Z" fill="#E3CFCF"/>
<path d="M44.9255 54.9707L32.931 61.8857L44.9255 68.8136V54.9707Z" fill="#E3CFCF"/>
<path d="M44.9255 51.2741V36.2163L31.897 43.7517V58.7966L44.9255 51.2741Z" fill="#E3CFCF"/>
<path d="M47.0194 16.2599V31.3177L60.048 23.7823V8.73741L47.0194 16.2599Z" fill="#E3CFCF"/>
<path d="M44.9255 16.2599V31.3177L31.897 23.7823V8.73741L44.9255 16.2599Z" fill="#E3CFCF"/>
<path d="M47.0194 0V13.8429L59.014 6.91496L47.0194 0Z" fill="#E3CFCF"/>
<path d="M44.9255 0L32.931 6.91496L44.9255 13.8429V0Z" fill="#E3CFCF"/>
<path d="M32.931 26.781V40.6367L44.9255 33.7088L32.931 26.781Z" fill="#E3CFCF"/>
<path d="M59.014 26.781L47.0194 33.7088L59.014 40.6367V26.781Z" fill="#E3CFCF"/>
<path d="M47.0194 51.2741V36.2163L60.048 43.7517V58.7966L47.0194 51.2741Z" fill="#E3CFCF"/>
<path d="M76.954 71.2306V86.2884L89.9953 78.7531V63.7082L76.954 71.2306Z" fill="#E3CFCF"/>
<path d="M74.873 71.2306V86.2884L61.8315 78.7531V63.7082L74.873 71.2306Z" fill="#E3CFCF"/>
<path d="M76.954 54.9707V68.8136L88.9484 61.8857L76.954 54.9707Z" fill="#E3CFCF"/>
<path d="M74.8731 54.9707L62.8786 61.8857L74.8731 68.8136V54.9707Z" fill="#E3CFCF"/>
<path d="M74.873 51.2741V36.2163L61.8315 43.7517V58.7966L74.873 51.2741Z" fill="#E3CFCF"/>
<path d="M76.954 16.2599V31.3177L89.9953 23.7823V8.73741L76.954 16.2599Z" fill="#E3CFCF"/>
<path d="M74.873 16.2599V31.3177L61.8315 23.7823V8.73741L74.873 16.2599Z" fill="#E3CFCF"/>
<path d="M76.954 0V13.8429L88.9484 6.91496L76.954 0Z" fill="#E3CFCF"/>
<path d="M74.8731 0L62.8786 6.91496L74.8731 13.8429V0Z" fill="#E3CFCF"/>
<path d="M62.8786 26.781V40.6367L74.8731 33.7088L62.8786 26.781Z" fill="#E3CFCF"/>
<path d="M88.9484 26.781L76.954 33.7088L88.9484 40.6367V26.781Z" fill="#E3CFCF"/>
<path d="M76.954 51.2741V36.2163L89.9953 43.7517V58.7966L76.954 51.2741Z" fill="#E3CFCF"/>
<path d="M0.112696 109.466C-0.0313044 109.142 -0.0373044 108.824 0.0946957 108.512L4.1267 98.1257C4.2227 97.8977 4.3727 97.7117 4.5767 97.5677C4.7807 97.4237 5.0087 97.3457 5.2607 97.3337C5.5247 97.2857 5.7827 97.3337 6.0347 97.4777C6.2987 97.6097 6.4967 97.8017 6.6287 98.0537L7.9607 101.366L9.5267 105.236L10.7687 108.476C10.9007 108.8 10.8947 109.124 10.7507 109.448C10.6187 109.76 10.3847 109.982 10.0487 110.114C9.7247 110.246 9.4007 110.246 9.0767 110.114C8.7527 109.97 8.5247 109.742 8.3927 109.43L7.3487 107.054C6.0047 107.018 4.6727 107.03 3.3527 107.09L2.4707 109.466C2.3267 109.778 2.0927 110.006 1.7687 110.15C1.4447 110.282 1.1207 110.282 0.796696 110.15C0.472696 110.006 0.244696 109.778 0.112696 109.466ZM4.3967 104.516C4.8527 104.516 5.5127 104.516 6.3767 104.516L5.4227 101.924L4.3967 104.516Z" fill="#C9EAFF"/>
<path d="M11.8768 109.826C11.6248 109.586 11.4988 109.298 11.4988 108.962C11.4868 107.774 11.4808 106.838 11.4808 106.154C11.4568 106.01 11.4568 105.872 11.4808 105.74C11.4688 104.408 11.4628 103.202 11.4628 102.122C11.4628 101.654 11.5828 101.3 11.8228 101.06C12.0748 100.808 12.3748 100.682 12.7228 100.682C12.9748 100.682 13.2028 100.754 13.4068 100.898C13.6228 101.03 13.7788 101.27 13.8748 101.618C14.3548 101.354 15.0748 101.054 16.0348 100.718C16.3468 100.61 16.6468 100.628 16.9348 100.772C17.2348 100.904 17.4388 101.126 17.5468 101.438C17.6548 101.75 17.6368 102.056 17.4928 102.356C17.3608 102.644 17.1388 102.842 16.8268 102.95C15.7228 103.334 14.7808 103.712 14.0008 104.084C13.9528 104.468 13.9468 105.014 13.9828 105.722C13.9948 106.478 14.0068 107.546 14.0188 108.926C14.0188 109.274 13.8928 109.574 13.6408 109.826C13.4008 110.078 13.1068 110.204 12.7588 110.204C12.4228 110.204 12.1288 110.078 11.8768 109.826Z" fill="#C9EAFF"/>
<path d="M23.7898 110.132C23.2378 110.324 22.6978 110.396 22.1698 110.348C21.6418 110.3 21.1318 110.18 20.6398 109.988C19.8718 109.676 19.2178 109.166 18.6778 108.458C18.1378 107.75 17.8318 106.97 17.7598 106.118C17.7118 105.41 17.8258 104.69 18.1018 103.958C18.3898 103.214 18.7918 102.578 19.3078 102.05C19.6798 101.666 20.0938 101.36 20.5498 101.132C21.0178 100.892 21.5458 100.742 22.1338 100.682C22.7218 100.622 23.3158 100.724 23.9158 100.988C24.2398 101.12 24.5818 101.336 24.9418 101.636C24.9658 101.66 25.0438 101.732 25.1758 101.852L25.4998 102.122C25.7758 102.338 25.9318 102.614 25.9678 102.95C26.0158 103.274 25.9318 103.574 25.7158 103.85C25.4998 104.114 25.2178 104.27 24.8698 104.318C24.5338 104.354 24.2278 104.264 23.9518 104.048C23.9278 104.036 23.6998 103.844 23.2678 103.472C23.1238 103.352 23.0158 103.274 22.9438 103.238C22.2958 102.974 21.6958 103.136 21.1438 103.724C20.8558 104.024 20.6278 104.378 20.4598 104.786C20.3038 105.194 20.2438 105.578 20.2798 105.938C20.3038 106.274 20.4358 106.622 20.6758 106.982C20.9158 107.33 21.2338 107.582 21.6298 107.738C22.0498 107.894 22.4038 107.954 22.6918 107.918C22.9918 107.87 23.2318 107.756 23.4118 107.576C23.4718 107.516 23.5438 107.39 23.6278 107.198C23.8798 106.646 24.0118 106.358 24.0238 106.334C24.1798 106.034 24.4198 105.836 24.7438 105.74C25.0798 105.632 25.4038 105.656 25.7158 105.812C26.0278 105.956 26.2318 106.19 26.3278 106.514C26.4358 106.838 26.4118 107.15 26.2558 107.45C26.2198 107.522 26.1838 107.6 26.1478 107.684C26.1118 107.756 26.0758 107.84 26.0398 107.936C26.0038 108.032 25.9678 108.11 25.9318 108.17C25.7398 108.626 25.5118 108.986 25.2478 109.25C24.8398 109.67 24.3538 109.964 23.7898 110.132Z" fill="#C9EAFF"/>
<path d="M29.1305 110.276C28.7945 110.276 28.5005 110.168 28.2485 109.952C27.9965 109.736 27.8705 109.43 27.8705 109.034C27.8705 107.918 27.8465 106.208 27.7985 103.904C27.7505 101.6 27.7265 99.7457 27.7265 98.3417C27.7265 97.9457 27.8525 97.6397 28.1045 97.4237C28.3565 97.2077 28.6505 97.0997 28.9865 97.0997C29.3225 97.0997 29.6165 97.2077 29.8685 97.4237C30.1205 97.6397 30.2465 97.9457 30.2465 98.3417C30.2465 99.7577 30.2525 100.772 30.2645 101.384C30.5045 101.204 30.7565 101.048 31.0205 100.916C31.4045 100.724 31.8425 100.628 32.3345 100.628C33.0305 100.628 33.6605 100.808 34.2245 101.168C34.8005 101.528 35.1905 102.002 35.3945 102.59C35.5385 103.022 35.6225 103.58 35.6465 104.264C35.6585 104.468 35.6645 104.846 35.6645 105.398V106.1L35.5565 109.106C35.5445 109.466 35.4245 109.742 35.1965 109.934C34.9685 110.126 34.6985 110.222 34.3865 110.222C34.0505 110.222 33.7625 110.114 33.5225 109.898C33.2825 109.682 33.1685 109.382 33.1805 108.998L33.2885 106.064L33.3065 105.092L33.2885 104.354C33.2645 103.934 33.2345 103.676 33.1985 103.58C33.0785 103.22 32.7665 103.04 32.2625 103.04C31.8905 103.04 31.5305 103.118 31.1825 103.274C30.8105 103.454 30.5225 103.658 30.3185 103.886C30.3665 106.202 30.3905 107.918 30.3905 109.034C30.3905 109.43 30.2645 109.736 30.0125 109.952C29.7605 110.168 29.4665 110.276 29.1305 110.276Z" fill="#C9EAFF"/>
<path d="M40.3037 108.962C40.3037 109.298 40.1777 109.592 39.9257 109.844C39.6737 110.084 39.3737 110.204 39.0257 110.204C38.6897 110.204 38.3957 110.078 38.1437 109.826C37.9037 109.574 37.7837 109.274 37.7837 108.926C37.7957 108.002 37.7837 106.322 37.7477 103.886C37.7117 101.438 37.7057 99.6437 37.7297 98.5037C37.7417 98.1557 37.8737 97.8677 38.1257 97.6397C38.3777 97.3997 38.6777 97.2857 39.0257 97.2977C39.3737 97.2977 39.6617 97.4237 39.8897 97.6757C40.1297 97.9277 40.2497 98.2277 40.2497 98.5757C40.2257 99.4877 40.2197 100.64 40.2317 102.032C42.6917 101.96 44.5577 101.924 45.8297 101.924C45.8297 100.604 45.8357 99.4697 45.8477 98.5217C45.8597 98.1737 45.9857 97.8797 46.2257 97.6397C46.4777 97.3997 46.7777 97.2857 47.1257 97.2977C47.4737 97.2977 47.7677 97.4237 48.0077 97.6757C48.2477 97.9157 48.3677 98.2097 48.3677 98.5577C48.3557 99.3377 48.3497 102.806 48.3497 108.962C48.3497 109.31 48.2237 109.61 47.9717 109.862C47.7317 110.102 47.4377 110.222 47.0897 110.222C46.7417 110.222 46.4417 110.102 46.1897 109.862C45.9497 109.61 45.8297 109.31 45.8297 108.962V104.444C44.5817 104.432 42.7277 104.468 40.2677 104.552C40.2917 106.52 40.3037 107.99 40.3037 108.962Z" fill="#C9EAFF"/>
<path d="M53.8049 110.33C52.7609 110.126 51.9449 109.646 51.3569 108.89C50.7569 108.134 50.3969 107.27 50.2769 106.298C50.1689 105.398 50.2709 104.498 50.5829 103.598C50.8949 102.686 51.3989 101.936 52.0949 101.348C52.3709 101.108 52.7249 100.922 53.1569 100.79C53.1689 100.79 53.2949 100.754 53.5349 100.682C53.6309 100.658 53.7029 100.634 53.7509 100.61C54.0869 100.478 54.4229 100.49 54.7589 100.646C55.8869 100.826 56.6429 101.012 57.0269 101.204C57.4709 101.42 57.8489 101.72 58.1609 102.104C58.4729 102.488 58.6889 102.896 58.8089 103.328C58.9409 103.748 59.0369 104.198 59.0969 104.678C59.1569 105.146 59.1509 105.572 59.0789 105.956C59.0189 106.544 58.8869 107.114 58.6829 107.666C58.4789 108.206 58.1669 108.722 57.7469 109.214C57.3269 109.706 56.8349 110.054 56.2709 110.258C55.5869 110.498 54.7649 110.522 53.8049 110.33ZM54.2729 107.882C54.7889 107.978 55.1789 107.978 55.4429 107.882C55.6709 107.798 55.8989 107.564 56.1269 107.18C56.3669 106.784 56.5169 106.286 56.5769 105.686C56.6489 105.086 56.6129 104.594 56.4689 104.21C56.3249 103.814 56.1509 103.568 55.9469 103.472C55.7909 103.4 55.6469 103.352 55.5149 103.328C55.3829 103.292 55.1909 103.262 54.9389 103.238C54.6989 103.202 54.4589 103.154 54.2189 103.094C54.0149 103.154 53.9069 103.184 53.8949 103.184L53.7149 103.256C53.3789 103.544 53.1209 103.94 52.9409 104.444C52.7609 104.948 52.7069 105.47 52.7789 106.01C52.8389 106.526 52.9949 106.946 53.2469 107.27C53.5109 107.594 53.8529 107.798 54.2729 107.882Z" fill="#C9EAFF"/>
<path d="M67.4695 110.384C66.7855 110.12 66.4435 109.682 66.4435 109.07C65.7595 110.03 64.7875 110.408 63.5275 110.204C62.9995 110.06 62.5375 109.844 62.1415 109.556C61.7575 109.268 61.4575 108.926 61.2415 108.53C61.0255 108.134 60.8635 107.744 60.7555 107.36C60.6475 106.964 60.5755 106.544 60.5395 106.1C60.5035 105.86 60.5035 105.464 60.5395 104.912C60.5755 104.36 60.6055 103.952 60.6295 103.688C60.6535 103.424 60.6955 103.064 60.7555 102.608C60.8155 102.14 60.8515 101.852 60.8635 101.744C60.9115 101.408 61.0615 101.138 61.3135 100.934C61.5775 100.73 61.8715 100.652 62.1955 100.7C62.5315 100.736 62.8015 100.886 63.0055 101.15C63.2095 101.402 63.2935 101.696 63.2575 102.032L63.1315 102.968C63.0715 103.412 63.0295 103.748 63.0055 103.976C62.9815 104.192 62.9515 104.528 62.9155 104.984C62.8915 105.428 62.8975 105.746 62.9335 105.938C62.9815 106.526 63.0955 106.976 63.2755 107.288C63.4675 107.588 63.7615 107.786 64.1575 107.882C64.4215 107.954 64.7155 107.936 65.0395 107.828C65.3635 107.708 65.6875 107.39 66.0115 106.874C66.0835 106.802 66.1555 106.742 66.2275 106.694C66.2395 104.93 66.2335 103.352 66.2095 101.96C66.2095 101.6 66.3295 101.3 66.5695 101.06C66.8095 100.808 67.1035 100.682 67.4515 100.682C67.8115 100.67 68.1115 100.784 68.3515 101.024C68.6035 101.264 68.7355 101.564 68.7475 101.924C68.7715 103.7 68.7715 106.106 68.7475 109.142C68.7475 109.478 68.6215 109.772 68.3695 110.024C68.1175 110.264 67.8175 110.384 67.4695 110.384Z" fill="#C9EAFF"/>
<path d="M73.9924 110.33C73.4644 110.33 72.9484 110.264 72.4444 110.132C71.9524 110 71.5384 109.814 71.2024 109.574C70.9504 109.37 70.7224 109.1 70.5184 108.764L70.3924 108.548L70.2304 108.26C70.1224 108.056 70.0684 107.87 70.0684 107.702C70.0684 107.39 70.1944 107.12 70.4464 106.892C70.7104 106.652 71.0044 106.532 71.3284 106.532C71.7364 106.532 72.0604 106.712 72.3004 107.072L72.5164 107.432L72.6244 107.648C72.6964 107.792 72.8344 107.906 73.0384 107.99C73.3504 108.086 73.6204 108.134 73.8484 108.134C74.0164 108.134 74.2264 108.116 74.4784 108.08C75.1144 107.948 75.4444 107.75 75.4684 107.486V107.414C75.4684 107.27 75.4024 107.132 75.2704 107C75.1144 106.856 74.7544 106.67 74.1904 106.442L73.3984 106.136C72.9544 105.98 72.6364 105.854 72.4444 105.758C71.5684 105.374 70.9984 104.906 70.7344 104.354C70.5544 103.994 70.4644 103.64 70.4644 103.292C70.4644 103.004 70.5244 102.734 70.6444 102.482C70.8844 101.894 71.4424 101.42 72.3184 101.06C72.8944 100.832 73.4884 100.718 74.1004 100.718C74.2204 100.718 74.4004 100.73 74.6404 100.754C75.6964 100.862 76.6204 101.276 77.4124 101.996C77.6644 102.212 77.7904 102.488 77.7904 102.824C77.7904 103.136 77.6764 103.418 77.4484 103.67C77.2324 103.922 76.9624 104.048 76.6384 104.048C76.3864 104.048 76.1344 103.964 75.8824 103.796L75.4504 103.472C75.2464 103.328 75.0964 103.238 75.0004 103.202C74.6404 103.082 74.2984 103.022 73.9744 103.022C73.6744 103.022 73.4164 103.052 73.2004 103.112C73.0444 103.172 72.9664 103.256 72.9664 103.364C72.9664 103.436 73.0024 103.496 73.0744 103.544C73.1584 103.592 73.2904 103.658 73.4704 103.742C73.6864 103.838 73.9984 103.952 74.4064 104.084C74.6824 104.168 74.9644 104.276 75.2524 104.408C75.4444 104.492 75.6544 104.588 75.8824 104.696C76.1224 104.792 76.3684 104.93 76.6204 105.11C77.0164 105.374 77.3284 105.704 77.5564 106.1C77.7844 106.484 77.8984 106.916 77.8984 107.396C77.8984 107.552 77.8924 107.672 77.8804 107.756C77.7724 108.5 77.4304 109.076 76.8544 109.484C76.2904 109.892 75.6124 110.156 74.8204 110.276C74.5564 110.312 74.2804 110.33 73.9924 110.33Z" fill="#C9EAFF"/>
<path d="M83.7308 110.366C82.7708 110.366 81.9308 110.162 81.2108 109.754C80.4908 109.346 79.9388 108.8 79.5548 108.116C79.1828 107.432 78.9968 106.676 78.9968 105.848C78.9968 104.804 79.1888 103.904 79.5728 103.148C79.9568 102.38 80.5088 101.774 81.2288 101.33C81.9488 100.886 82.7648 100.664 83.6768 100.664C84.6128 100.664 85.4108 100.856 86.0708 101.24C86.7428 101.624 87.2468 102.146 87.5828 102.806C87.9188 103.454 88.0868 104.18 88.0868 104.984C88.0868 105.392 87.9548 105.71 87.6908 105.938C87.4268 106.166 87.0728 106.298 86.6288 106.334C85.7288 106.418 84.9308 106.46 84.2348 106.46C83.5748 106.46 82.8668 106.442 82.1108 106.406L81.4808 106.388C81.5528 106.976 81.7808 107.438 82.1648 107.774C82.5608 108.098 83.1548 108.248 83.9468 108.224C84.3068 108.212 84.5948 108.17 84.8108 108.098C85.0268 108.014 85.2188 107.894 85.3868 107.738C85.4828 107.642 85.5848 107.54 85.6928 107.432C85.8008 107.324 85.9208 107.24 86.0528 107.18C86.1848 107.12 86.3468 107.09 86.5388 107.09C86.8508 107.09 87.1088 107.198 87.3128 107.414C87.5288 107.618 87.6368 107.858 87.6368 108.134C87.6368 108.518 87.4448 108.884 87.0608 109.232C86.6768 109.58 86.1788 109.856 85.5668 110.06C84.9668 110.264 84.3548 110.366 83.7308 110.366ZM81.5168 104.552C82.2248 104.648 83.0108 104.684 83.8748 104.66C84.7028 104.648 85.3088 104.594 85.6928 104.498C85.6688 103.982 85.5128 103.568 85.2248 103.256C84.9488 102.944 84.4448 102.794 83.7128 102.806C83.1008 102.818 82.6028 102.956 82.2188 103.22C81.8348 103.484 81.6008 103.928 81.5168 104.552Z" fill="#C9EAFF"/>
</svg>
